<svg width="16" height="16" viewBox="0 0 16 16" fill="none" xmlns="http://www.w3.org/2000/svg">
<path d="M14.5 9.5L9.5 14.5" stroke="#2D2D2E"/>
<path d="M14.5 14.5L9.5 9.5" stroke="#2D2D2E"/>
<path d="M5.5 1.5C4.94772 1.5 4.5 1.94772 4.5 2.5L4.5 5.5C4.5 6.05228 4.94772 6.5 5.5 6.5L13.5 6.5C14.0523 6.5 14.5 6.05228 14.5 5.5L14.5 2.5C14.5 1.94772 14.0523 1.5 13.5 1.5L5.5 1.5Z" stroke="#2D2D2E" stroke-linejoin="round"/>
<path d="M1.5 13.5L1.5 10.5C1.5 9.94772 1.94772 9.5 2.5 9.5L6.5 9.5C7.05228 9.5 7.5 9.94772 7.5 10.5L7.5 13.5C7.5 14.0523 7.05228 14.5 6.5 14.5L2.5 14.5C1.94772 14.5 1.5 14.0523 1.5 13.5Z" stroke="#2D2D2E" stroke-linecap="square" stroke-linejoin="round"/>
</svg>
