<svg width="16" height="16" viewBox="0 0 16 16" fill="none" xmlns="http://www.w3.org/2000/svg">
<path d="M2.5 2.5V13.5C2.5 14.0523 2.94771 14.5 3.5 14.5H12.5C13.0523 14.5 13.5 14.0523 13.5 13.5V5.41421C13.5 5.149 13.3946 4.89464 13.2071 4.70711L10.2929 1.79289C10.1054 1.60536 9.851 1.5 9.58579 1.5H3.5C2.94772 1.5 2.5 1.94771 2.5 2.5Z" fill="#D7F7EA" stroke="#11AD6F" stroke-linecap="round" stroke-linejoin="round"/>
<path d="M9.5 1.5V4.5C9.5 5.05228 9.94772 5.5 10.5 5.5H13.5" stroke="#11AD6F" stroke-linejoin="round"/>
<path d="M5 8C5 7.72386 5.22386 7.5 5.5 7.5H10.5C10.7761 7.5 11 7.72386 11 8V12C11 12.2761 10.7761 12.5 10.5 12.5H5.5C5.22386 12.5 5 12.2761 5 12V8Z" fill="#94E3C3" stroke="#11AD6F" stroke-linejoin="round"/>
<path d="M5.25 9.75H10.75V12C10.75 12.1381 10.6381 12.25 10.5 12.25H5.5C5.36193 12.25 5.25 12.1381 5.25 12V9.75Z" fill="#D7F7EA" stroke="#11AD6F" stroke-width="0.5"/>
<path d="M4.5 9.5L11.5 9.5" stroke="#11AD6F" stroke-linejoin="round"/>
<path d="M7.5 8L7.5 12.5" stroke="#11AD6F" stroke-linejoin="round"/>
</svg>
