<svg width="32" height="32" viewBox="0 0 32 32" fill="none" xmlns="http://www.w3.org/2000/svg">
<path d="M7 5V27C7 28.1046 7.89543 29 9 29H27C28.1046 29 29 28.1046 29 27V10.8284C29 10.298 28.7893 9.78929 28.4142 9.41421L22.5858 3.58579C22.2107 3.21071 21.702 3 21.1716 3H9C7.89543 3 7 3.89543 7 5Z" fill="#E6F0FF" stroke="#0064FF" stroke-width="2" stroke-linecap="round"/>
<path d="M21 3V9C21 10.1046 21.8954 11 23 11H29" stroke="#0064FF" stroke-width="2" stroke-linejoin="round"/>
<rect x="3" y="12" width="14" height="12" rx="1" fill="#0064FF" stroke="#0064FF" stroke-width="2" stroke-linejoin="round"/>
<path d="M4.32275 20V15.53H6.03875C6.34675 15.53 6.61875 15.584 6.85475 15.692C7.09475 15.8 7.28275 15.96 7.41875 16.172C7.55475 16.384 7.62275 16.646 7.62275 16.958C7.62275 17.262 7.55275 17.52 7.41275 17.732C7.27675 17.944 7.08875 18.106 6.84875 18.218C6.61275 18.326 6.34275 18.38 6.03875 18.38H5.25275V20H4.32275ZM5.25275 17.57H6.04475C6.17675 17.57 6.29075 17.544 6.38675 17.492C6.48275 17.44 6.55675 17.368 6.60875 17.276C6.66475 17.184 6.69275 17.078 6.69275 16.958C6.69275 16.834 6.66475 16.726 6.60875 16.634C6.55675 16.542 6.48275 16.47 6.38675 16.418C6.29075 16.366 6.17675 16.34 6.04475 16.34H5.25275V17.57Z" fill="white"/>
<path d="M9.77493 20.072C9.49493 20.072 9.23093 20.022 8.98293 19.922C8.73893 19.818 8.52693 19.672 8.34693 19.484C8.17093 19.296 8.03893 19.074 7.95093 18.818L8.71293 18.476C8.82493 18.72 8.97893 18.912 9.17493 19.052C9.37493 19.192 9.59493 19.262 9.83493 19.262C9.96293 19.262 10.0729 19.242 10.1649 19.202C10.2569 19.162 10.3289 19.108 10.3809 19.04C10.4329 18.968 10.4589 18.884 10.4589 18.788C10.4589 18.684 10.4269 18.596 10.3629 18.524C10.2989 18.448 10.1989 18.388 10.0629 18.344L9.18693 18.056C8.83093 17.94 8.56293 17.776 8.38293 17.564C8.20293 17.348 8.11293 17.09 8.11293 16.79C8.11293 16.526 8.17693 16.294 8.30493 16.094C8.43693 15.894 8.61893 15.738 8.85093 15.626C9.08693 15.514 9.35693 15.458 9.66093 15.458C9.92893 15.458 10.1769 15.504 10.4049 15.596C10.6329 15.688 10.8289 15.818 10.9929 15.986C11.1609 16.154 11.2869 16.356 11.3709 16.592L10.6149 16.934C10.5309 16.726 10.4049 16.564 10.2369 16.448C10.0689 16.328 9.87693 16.268 9.66093 16.268C9.53693 16.268 9.42693 16.288 9.33093 16.328C9.23493 16.368 9.16093 16.426 9.10893 16.502C9.05693 16.574 9.03093 16.658 9.03093 16.754C9.03093 16.858 9.06493 16.95 9.13293 17.03C9.20093 17.106 9.30293 17.166 9.43893 17.21L10.2969 17.486C10.6569 17.602 10.9249 17.764 11.1009 17.972C11.2809 18.18 11.3709 18.434 11.3709 18.734C11.3709 18.994 11.3029 19.226 11.1669 19.43C11.0309 19.63 10.8429 19.788 10.6029 19.904C10.3669 20.016 10.0909 20.072 9.77493 20.072Z" fill="white"/>
<path d="M12.0337 20V15.53H13.4917C13.9757 15.53 14.3957 15.626 14.7517 15.818C15.1077 16.01 15.3837 16.274 15.5797 16.61C15.7757 16.946 15.8737 17.33 15.8737 17.762C15.8737 18.194 15.7757 18.58 15.5797 18.92C15.3837 19.256 15.1077 19.52 14.7517 19.712C14.3957 19.904 13.9757 20 13.4917 20H12.0337ZM12.9637 19.19H13.5157C13.8077 19.19 14.0597 19.132 14.2717 19.016C14.4837 18.896 14.6477 18.73 14.7637 18.518C14.8837 18.302 14.9437 18.05 14.9437 17.762C14.9437 17.47 14.8837 17.218 14.7637 17.006C14.6477 16.794 14.4837 16.63 14.2717 16.514C14.0597 16.398 13.8077 16.34 13.5157 16.34H12.9637V19.19Z" fill="white"/>
</svg>
