<svg width="16" height="16" viewBox="0 0 16 16" fill="none" xmlns="http://www.w3.org/2000/svg">
<path d="M5.54004 3.72086C5.75212 3.59818 5.9743 3.49101 6.20502 3.4009L6.64835 1.29517H9.30829L9.75162 3.4009C9.98234 3.49101 10.2045 3.59818 10.4166 3.72086" stroke="#575859" stroke-width="2"/>
<path d="M10.4166 12.1692C10.2045 12.2919 9.98234 12.3991 9.75162 12.4892L9.30829 14.5949H6.64835L6.20502 12.4892C5.9743 12.3991 5.75212 12.2919 5.54004 12.1692" stroke="#575859" stroke-width="2"/>
<path d="M10.4183 3.72183C10.6302 3.84404 10.8339 3.98271 11.027 4.13727L13.0723 3.46834L14.4023 5.77192L12.8003 7.20871C12.8264 7.37997 12.8432 7.55179 12.8509 7.72343" stroke="#575859" stroke-width="2"/>
<path d="M3.1009 7.94507C3.10067 8.19022 3.11895 8.43636 3.1563 8.68137L1.55434 10.1182L2.88431 12.4217L4.92959 11.7528C5.12324 11.9078 5.32741 12.0468 5.53999 12.1692" stroke="#575859" stroke-width="2"/>
<path d="M12.8559 7.94507C12.8561 8.19022 12.8378 8.43636 12.8005 8.68137L14.4024 10.1182L13.0725 12.4217L11.0272 11.7528C10.834 11.9074 10.6304 12.046 10.4184 12.1683" stroke="#575859" stroke-width="2"/>
<path d="M5.54008 3.72083C5.3275 3.84327 5.12333 3.98226 4.92969 4.13722L2.8844 3.46828L1.55443 5.77186L3.15639 7.20865C3.11904 7.45369 3.10076 7.69986 3.10099 7.94503" stroke="#575859" stroke-width="2"/>
<path d="M12.8547 8.04606C12.8607 7.76762 12.8429 7.48753 12.8004 7.2089L13.7983 6.31386C14.1504 5.99812 14.2331 5.47895 13.9967 5.06942L13.4781 4.17121C13.2416 3.76168 12.7506 3.57375 12.3012 3.72075L11.0271 4.13746C10.8335 3.9825 10.6293 3.84352 10.4167 3.72108" stroke="#575859" stroke-width="2"/>
<circle cx="7.99996" cy="7.99996" r="1.74605" stroke="#575859" stroke-width="2"/>
</svg>
