<svg width="16" height="16" viewBox="0 0 16 16" fill="none" xmlns="http://www.w3.org/2000/svg">
<path d="M4.5 9.5L11.5 9.5" stroke="#2D2D2E"/>
<path d="M4.5 7.5L11.5 7.5" stroke="#2D2D2E"/>
<path d="M4.5 11.5L9.5 11.5" stroke="#2D2D2E"/>
<path d="M9.5 1.5V4.5C9.5 5.05228 9.94772 5.5 10.5 5.5H13.5" stroke="#2D2D2E" stroke-linejoin="round"/>
<path d="M2.5 2.5V13.5C2.5 14.0523 2.94771 14.5 3.5 14.5H12.5C13.0523 14.5 13.5 14.0523 13.5 13.5V5.41421C13.5 5.149 13.3946 4.89464 13.2071 4.70711L10.2929 1.79289C10.1054 1.60536 9.851 1.5 9.58579 1.5H3.5C2.94772 1.5 2.5 1.94771 2.5 2.5Z" stroke="#2D2D2E" stroke-linecap="round" stroke-linejoin="round"/>
</svg>
