<svg width="16" height="16" viewBox="0 0 16 16" fill="none" xmlns="http://www.w3.org/2000/svg">
<path d="M5.31394 14.5411C3.89822 14.5161 3.60333 13.1246 3.34953 11.3811C3.19508 10.3205 3.16797 9.22578 3.16797 8.1516C3.16797 7.07743 3.19508 5.98231 3.34953 4.92169C3.6609 2.78032 4.0347 1.17009 6.47265 1.97069C8.80913 2.73883 11.0589 4.09726 13.0339 5.64013C13.1327 5.7264 13.2418 5.81756 13.3565 5.91337C14.0619 6.50283 14.9779 7.26825 14.9991 8.1516C14.9779 9.03441 14.063 9.79913 13.3578 10.3886C13.2426 10.4849 13.1331 10.5764 13.0339 10.6631C11.0589 12.2055 8.80913 13.564 6.47265 14.3321C6.05544 14.4693 5.6987 14.5358 5.39237 14.5411H5.31394Z" fill="#4396F7"/>
<path d="M2.97915 13.1433C1.77751 13.1141 1.45251 12.1887 1.22469 10.9807L1.20539 10.8801L1.16883 10.6751C1.02547 9.84658 1 8.99135 1 8.15214C1 7.31293 1.02547 6.4577 1.16924 5.62875L1.20621 5.42419L1.22469 5.32355C1.49211 3.90597 1.89343 2.87739 3.68934 3.22983C3.53776 3.71742 3.44164 4.29743 3.35045 4.92222C3.196 5.98325 3.16889 7.07796 3.16889 8.15214C3.16889 9.22631 3.196 10.321 3.35045 11.3816C3.44164 12.0064 3.53776 12.5864 3.68934 13.074C3.47281 13.1166 3.27655 13.1391 3.09836 13.1433H2.97915Z" fill="#EF8E34"/>
<path fill-rule="evenodd" clip-rule="evenodd" d="M3.68874 3.229C3.81362 3.25365 3.94548 3.28446 4.08391 3.32266C6.26512 3.9228 8.36458 4.98383 10.2081 6.18904C10.8674 6.6717 12.0197 7.34907 12.0422 8.15131C12.0192 8.95355 10.8674 9.63133 10.2081 10.1136C8.36458 11.3188 6.26471 12.3798 4.08391 12.98C3.94548 13.0182 3.81403 13.049 3.68915 13.0736C3.53758 12.586 3.44146 12.006 3.35067 11.3808C3.19581 10.3202 3.1687 9.22548 3.1687 8.15131C3.1687 7.07714 3.19581 5.98242 3.35067 4.9218C3.44104 4.30071 3.53634 3.72399 3.68628 3.23804L3.68874 3.229Z" fill="#78E445"/>
<path d="M4.84521 8.15587C4.84521 6.33573 4.97584 6.11555 4.97584 6.11555C5.02842 5.88223 5.15535 5.81815 5.35293 5.87484C5.35293 5.87484 5.93952 5.9993 7.35915 6.74527C8.79357 7.49863 9.23434 7.9131 9.23434 7.9131C9.45081 8.10123 9.40604 8.2183 9.23434 8.39576C9.23434 8.39576 8.96528 8.70425 7.35915 9.53689C5.75261 10.3654 5.35293 10.4295 5.35293 10.4295C5.11427 10.4862 5.02103 10.4151 4.97584 10.1892C4.97584 10.1892 4.84521 9.9797 4.84521 8.15587Z" fill="white"/>
</svg>
