<svg width="16" height="16" viewBox="0 0 16 16" fill="none" xmlns="http://www.w3.org/2000/svg">
<g clip-path="url(#clip0_7512_3900)">
<path d="M12.8083 11.1113L15.5404 11.8434" stroke="#2D2D2E"/>
<path d="M11.8467 15.5376L11.1146 12.8055" stroke="#2D2D2E"/>
<path d="M4.88867 3.19165L4.15662 0.4596" stroke="#2D2D2E"/>
<path d="M0.462158 4.15332L3.19421 4.88537" stroke="#2D2D2E"/>
<path d="M10.5315 5.46826L5.46753 10.5322" stroke="#2D2D2E"/>
<path d="M6.94336 3.56909L7.57636 2.9361C9.09126 1.42119 11.5474 1.42119 13.0623 2.9361V2.9361C14.5772 4.451 14.5772 6.90715 13.0623 8.42206L12.4293 9.05505M9.05334 12.431L8.42035 13.064C6.90544 14.5789 4.44929 14.5789 2.93439 13.064V13.064C1.41948 11.5491 1.41948 9.09297 2.93439 7.57807L3.56738 6.94507" stroke="#2D2D2E"/>
</g>
<defs>
<clipPath id="clip0_7512_3900">
<rect width="16" height="16" fill="white"/>
</clipPath>
</defs>
</svg>
