<svg width="16" height="16" viewBox="0 0 16 16" fill="none" xmlns="http://www.w3.org/2000/svg">
<path d="M9.5 5V2.5C9.5 1.94772 9.94772 1.5 10.5 1.5H13.5C14.0523 1.5 14.5 1.94772 14.5 2.5V5" stroke="#2D2D2E"/>
<path d="M6.5 11L6.5 13C6.5 13.5523 6.05228 14 5.5 14L2.5 14C1.94772 14 1.5 13.5523 1.5 13L1.5 11" stroke="#2D2D2E"/>
<path d="M1.5 5V2.5C1.5 1.94772 1.94772 1.5 2.5 1.5H5.5C6.05228 1.5 6.5 1.94772 6.5 2.5V5" stroke="#2D2D2E"/>
<path d="M14.5 11L14.5 13C14.5 13.5523 14.0523 14 13.5 14L10.5 14C9.94772 14 9.5 13.5523 9.5 13L9.5 11" stroke="#2D2D2E"/>
<path d="M3.5 11L6.50003 7.99997L3.5 5" stroke="#2D2D2E" stroke-linejoin="round"/>
<path d="M12.5 11L9.49997 7.99997L12.5 5" stroke="#2D2D2E" stroke-linejoin="round"/>
<path d="M6 8L1 8" stroke="#2D2D2E"/>
<path d="M10 8L15 8" stroke="#2D2D2E"/>
</svg>
