<svg width="16" height="16" viewBox="0 0 16 16" fill="none" xmlns="http://www.w3.org/2000/svg">
<g clip-path="url(#clip0_1621_100827)">
<rect width="16" height="16" fill="white"/>
<mask id="path-1-inside-1_1621_100827" fill="white">
<path fill-rule="evenodd" clip-rule="evenodd" d="M1.24286 2.24264C1.24286 1.69035 1.69058 1.24264 2.24286 1.24264L8.31393 1.24264L14.6779 7.6066C15.0684 7.99713 15.0684 8.63029 14.6779 9.02081L9.02104 14.6777C8.63051 15.0682 7.99735 15.0682 7.60682 14.6777L1.24286 8.31371L1.24286 2.24264Z"/>
</mask>
<path d="M2.24286 1.24264L2.24286 2.24264L2.24286 2.24264L2.24286 1.24264ZM1.24286 2.24264L2.24286 2.24264L2.24286 2.24264L1.24286 2.24264ZM8.31393 1.24264L8.31393 0.242641L8.72814 0.242641L9.02104 0.535534L8.31393 1.24264ZM14.6779 7.6066L15.385 6.89949L14.6779 7.6066ZM7.60682 14.6777L8.31393 13.9706L7.60682 14.6777ZM1.24286 8.31371L0.535754 9.02081L0.242861 8.72792L0.242861 8.31371L1.24286 8.31371ZM2.24286 2.24264L2.24286 2.24264L0.242862 2.24264C0.242861 1.13807 1.13829 0.242639 2.24286 0.242639L2.24286 2.24264ZM8.31393 2.24264L2.24286 2.24264L2.24286 0.24264L8.31393 0.242641L8.31393 2.24264ZM13.9708 8.31371L7.60682 1.94975L9.02104 0.535534L15.385 6.89949L13.9708 8.31371ZM13.9708 8.31371L13.9708 8.31371L15.385 6.89949C16.166 7.68054 16.166 8.94687 15.385 9.72792L13.9708 8.31371ZM8.31393 13.9706L13.9708 8.31371L15.385 9.72792L9.72814 15.3848L8.31393 13.9706ZM8.31393 13.9706L9.72814 15.3848C8.94709 16.1658 7.68076 16.1658 6.89972 15.3848L8.31393 13.9706ZM1.94997 7.6066L8.31393 13.9706L6.89972 15.3848L0.535754 9.02081L1.94997 7.6066ZM2.24286 2.24264L2.24286 8.31371L0.242861 8.31371L0.242862 2.24264L2.24286 2.24264Z" fill="#2D2D2E" mask="url(#path-1-inside-1_1621_100827)"/>
<path d="M5.13194 7.25304C5.71772 7.83882 6.66747 7.83882 7.25326 7.25304C7.83904 6.66725 7.83904 5.7175 7.25326 5.13172C6.66747 4.54593 5.71772 4.54593 5.13194 5.13172C4.54615 5.7175 4.54615 6.66725 5.13194 7.25304Z" stroke="#2D2D2E"/>
</g>
<defs>
<clipPath id="clip0_1621_100827">
<rect width="16" height="16" fill="white"/>
</clipPath>
</defs>
</svg>
