<svg width="16" height="16" viewBox="0 0 16 16" fill="none" xmlns="http://www.w3.org/2000/svg">
<path d="M8.32422 7.99976C8.32422 6.52476 9.52422 5.32471 10.9992 5.32471C12.4742 5.32471 13.6742 6.52476 13.6742 7.99976C13.6742 9.47476 12.4742 10.6748 10.9992 10.6748C9.52422 10.6748 8.32422 9.47476 8.32422 7.99976Z" fill="#1ABCFE"/>
<path d="M3 13.325C3 11.85 4.2 10.65 5.675 10.65H8.32501V13.325C8.32501 14.8 7.12501 16 5.65 16C4.175 16 3 14.8 3 13.325Z" fill="#0ACF83"/>
<path d="M8.32422 0V5.325H10.9992C12.4742 5.325 13.6742 4.125 13.6742 2.65C13.6742 1.175 12.4742 0 10.9992 0L8.32422 0Z" fill="#FF7262"/>
<path d="M3 2.675C3 4.15 4.2 5.35 5.675 5.35L8.32501 5.35V0L5.65 0C4.175 0 3 1.2 3 2.675Z" fill="#F24E1E"/>
<path d="M3 8C3 9.475 4.2 10.675 5.675 10.675H8.32501V5.32495L5.65 5.32495C4.175 5.32495 3 6.525 3 8Z" fill="#A259FF"/>
</svg>
