<svg width="16" height="16" viewBox="0 0 16 16" fill="none" xmlns="http://www.w3.org/2000/svg">
<path d="M8 8L6 10" stroke="#2D2D2E"/>
<path d="M6.48658 6.97308L6.77036 6.6893C7.44952 6.01014 8.55065 6.01014 9.2298 6.6893C9.90896 7.36845 9.90896 8.46958 9.2298 9.14874L8.94602 9.43252M7.43252 10.946L7.14874 11.2298C6.46958 11.909 5.36845 11.909 4.6893 11.2298C4.01014 10.5506 4.01014 9.44952 4.6893 8.77036L4.97308 8.48658" stroke="#2D2D2E"/>
<path d="M1.5 4.5C1.5 3.94771 1.94772 3.5 2.5 3.5H11.5C12.0523 3.5 12.5 3.94772 12.5 4.5V13.5C12.5 14.0523 12.0523 14.5 11.5 14.5H2.5C1.94771 14.5 1.5 14.0523 1.5 13.5V4.5Z" stroke="#2D2D2E"/>
<path d="M6 1.5H4.5C3.94772 1.5 3.5 1.94772 3.5 2.5V3.5" stroke="#2D2D2E"/>
<path d="M14.5 4L14.5 2.5C14.5 1.94772 14.0523 1.5 13.5 1.5L12 1.5" stroke="#2D2D2E"/>
<path d="M13 12.5L13.5 12.5C14.0523 12.5 14.5 12.0523 14.5 11.5L14.5 10" stroke="#2D2D2E"/>
<path d="M8 1.5H10" stroke="#2D2D2E"/>
<path d="M14.5 8L14.5 6" stroke="#2D2D2E"/>
</svg>
