<svg width="16" height="16" viewBox="0 0 16 16" fill="none" xmlns="http://www.w3.org/2000/svg">
<path d="M2.5 2.5V13.5C2.5 14.0523 2.94771 14.5 3.5 14.5H12.5C13.0523 14.5 13.5 14.0523 13.5 13.5V5.41421C13.5 5.149 13.3946 4.89464 13.2071 4.70711L10.2929 1.79289C10.1054 1.60536 9.851 1.5 9.58579 1.5H3.5C2.94772 1.5 2.5 1.94771 2.5 2.5Z" fill="#D7F7EA"/>
<path d="M5 8C5 7.72386 5.22386 7.5 5.5 7.5H10.5C10.7761 7.5 11 7.72386 11 8V12C11 12.2761 10.7761 12.5 10.5 12.5H5.5C5.22386 12.5 5 12.2761 5 12V8Z" fill="#94E3C3"/>
<path fill-rule="evenodd" clip-rule="evenodd" d="M3 13.5C3 13.7761 3.22386 14 3.5 14H12.5C12.7761 14 13 13.7761 13 13.5V6H10.5C9.67157 6 9 5.32843 9 4.5V2H3.5C3.22386 2 3 2.22386 3 2.5V13.5ZM10 2.20711V4.5C10 4.77614 10.2239 5 10.5 5H12.7929L10 2.20711ZM3.5 15C2.67157 15 2 14.3284 2 13.5V2.5C2 1.67157 2.67157 1 3.5 1H9.58579C9.98361 1 10.3651 1.15804 10.6464 1.43934L13.5607 4.35355C13.842 4.63486 14 5.01639 14 5.41421V13.5C14 14.3284 13.3284 15 12.5 15H3.5Z" fill="#00A865"/>
<path d="M5 9.5L11 9.5V12C11 12.2761 10.7761 12.5 10.5 12.5H5.5C5.22386 12.5 5 12.2761 5 12L5 9.5Z" fill="#D7F7EA"/>
<path fill-rule="evenodd" clip-rule="evenodd" d="M5.5 7C4.94772 7 4.5 7.44772 4.5 8V9V10V12C4.5 12.5523 4.94771 13 5.5 13H10.5C11.0523 13 11.5 12.5523 11.5 12V10V9V8C11.5 7.44772 11.0523 7 10.5 7H5.5ZM10.5 9V8H8V9H10.5ZM7 8L5.5 8V9H7V8ZM5.5 10V12H7V10H5.5ZM8 12H10.5V10H8V12Z" fill="#00A865"/>
</svg>
